HIERARCHY
ROOT Hips
{
	OFFSET 0.000000 0.000000 0.000000
	CHANNELS 6 Xposition Yposition Zposition Zrotation Yrotation Xrotation 
	JOINT LHipJoint
	{
		OFFSET 0.000000 0.000000 0.000000
		CHANNELS 3 Zrotation Yrotation Xrotation
		JOINT LeftUpLeg
		{
			OFFSET 1.363060 -1.794630 0.839290
			CHANNELS 3 Zrotation Yrotation Xrotation
			JOINT LeftLeg
			{
				OFFSET 2.448110 -6.726130 0.000000
				CHANNELS 3 Zrotation Yrotation Xrotation
				JOINT LeftFoot
				{
					OFFSET 2.562200 -7.039590 0.000000
					CHANNELS 3 Zrotation Yrotation Xrotation
					JOINT LeftToeBase
					{
						OFFSET 0.157640 -0.433110 2.322550
						CHANNELS 3 Zrotation Yrotation Xrotation
						End Site
						{
							OFFSET 0.000000 0.000000 0.000000
						}
					}
				}
			}
		}
	}
	JOINT RHipJoint
	{
		OFFSET 0.000000 0.000000 0.000000
		CHANNELS 3 Zrotation Yrotation Xrotation
		JOINT RightUpLeg
		{
			OFFSET -1.305520 -1.794630 0.839290
			CHANNELS 3 Zrotation Yrotation Xrotation
			JOINT RightLeg
			{
				OFFSET -2.542530 -6.985550 0.000000
				CHANNELS 3 Zrotation Yrotation Xrotation
				JOINT RightFoot
				{
					OFFSET -2.568260 -7.056230 0.000000
					CHANNELS 3 Zrotation Yrotation Xrotation
					JOINT RightToeBase
					{
						OFFSET -0.164730 -0.452590 2.363150
						CHANNELS 3 Zrotation Yrotation Xrotation
						End Site
						{
							OFFSET 0.000000 0.000000 0.000000
						}
					}
				}
			}
		}
	}
	JOINT LowerBack
	{
		OFFSET 0.000000 0.000000 0.000000
		CHANNELS 3 Zrotation Yrotation Xrotation
		JOINT Spine
		{
			OFFSET 0.028270 2.035590 -0.193380
			CHANNELS 3 Zrotation Yrotation Xrotation
			JOINT Spine1
			{
				OFFSET 0.056720 2.048850 -0.042750
				CHANNELS 3 Zrotation Yrotation Xrotation
				JOINT Neck
				{
					OFFSET 0.000000 0.000000 0.000000
					CHANNELS 3 Zrotation Yrotation Xrotation
					JOINT Neck1
					{
						OFFSET -0.054170 1.746240 0.172020
						CHANNELS 3 Zrotation Yrotation Xrotation
						JOINT Head
						{
							OFFSET 0.104070 1.761360 -0.123970
							CHANNELS 3 Zrotation Yrotation Xrotation
							End Site
							{
								OFFSET 0.000000 0.000000 0.000000
							}
						}
					}
				}
				JOINT LeftShoulder
				{
					OFFSET 0.000000 0.000000 0.000000
					CHANNELS 3 Zrotation Yrotation Xrotation
					JOINT LeftArm
					{
						OFFSET 3.362410 1.200890 -0.311210
						CHANNELS 3 Zrotation Yrotation Xrotation
						JOINT LeftForeArm
						{
							OFFSET 4.983000 -0.000000 -0.000000
							CHANNELS 3 Zrotation Yrotation Xrotation
							JOINT LeftHand
							{
								OFFSET 3.483560 -0.000000 -0.000000
								CHANNELS 3 Zrotation Yrotation Xrotation
								JOINT LeftFingerBase
								{
									OFFSET 0.000000 0.000000 0.000000
									CHANNELS 3 Zrotation Yrotation Xrotation
									JOINT LeftHandIndex1
									{
										OFFSET 0.715260 -0.000000 -0.000000
										CHANNELS 3 Zrotation Yrotation Xrotation
										End Site
										{
											OFFSET 0.000000 0.000000 0.000000
										}
									}
								}
								JOINT LThumb
								{
									OFFSET 0.000000 0.000000 0.000000
									CHANNELS 3 Zrotation Yrotation Xrotation
									End Site
									{
										OFFSET 0.000000 0.000000 0.000000
									}
								}
							}
						}
					}
				}
				JOINT RightShoulder
				{
					OFFSET 0.000000 0.000000 0.000000
					CHANNELS 3 Zrotation Yrotation Xrotation
					JOINT RightArm
					{
						OFFSET -3.136600 1.374050 -0.404650
						CHANNELS 3 Zrotation Yrotation Xrotation
						JOINT RightForeArm
						{
							OFFSET -5.241900 -0.000000 -0.000000
							CHANNELS 3 Zrotation Yrotation Xrotation
							JOINT RightHand
							{
								OFFSET -3.444170 -0.000000 -0.000000
								CHANNELS 3 Zrotation Yrotation Xrotation
								JOINT RightFingerBase
								{
									OFFSET 0.000000 0.000000 0.000000
									CHANNELS 3 Zrotation Yrotation Xrotation
									JOINT RightHandIndex1
									{
										OFFSET -0.622530 -0.000000 -0.000000
										CHANNELS 3 Zrotation Yrotation Xrotation
										End Site
										{
											OFFSET 0.000000 0.000000 0.000000
										}
									}
								}
								JOINT RThumb
								{
									OFFSET 0.000000 0.000000 0.000000
									CHANNELS 3 Zrotation Yrotation Xrotation
									End Site
									{
										OFFSET 0.000000 0.000000 0.000000
									}
								}
							}
						}
					}
				}
			}
		}
	}
}
MOTION
Frames: 12
Frame Time: 0.008333
3.427441 18.425734 -21.974286 175.770385 46.882915 -175.105855 -6.726865 -5.954473 -5.180339 2.365723 -2.128527 -35.608519 4.668135 15.520543 41.007307 1.958077 2.311111 25.077349 0.670200 -5.235300 -14.580800 9.881299 2.505678 4.377294 19.273825 -3.848569 -13.481251 -3.652674 -12.598292 36.861196 10.106085 -26.077992 2.908409 -3.116400 10.881200 -31.880200 3.340940 0.987945 11.622833 0.278638 1.670932 -4.223703 -0.883978 1.065448 -3.455265 -3.656837 -3.563517 -16.222139 4.488787 -4.468765 4.358194 0.891800 -2.292900 6.665700 4.876554 -2.766958 -0.146069 -81.708804 30.631460 46.181304 114.053513 -57.998376 -83.687369 -0.150819 -0.203938 -12.819774 20.033238 -11.136607 -4.002400 -7.125000 0.000000 0.000000 -4.832300 18.355900 3.075600 -7.115882 3.097392 0.361541 89.184832 -16.344247 44.399461 -135.238951 48.493354 -100.736803 1.685385 -1.044531 -5.432929 -23.308591 12.887239 -6.419700 7.125000 0.000000 0.000000 1.741300 -14.577400 1.247600 
3.746971 18.519956 -22.379256 176.356192 47.122191 -175.132729 -7.082959 -6.141351 -5.355916 2.658761 -1.915227 -34.936769 3.217286 14.227412 36.213360 2.164614 3.385800 28.603713 0.810700 -5.745900 -16.048800 9.949568 2.336232 4.743700 19.005618 -4.367502 -12.175312 -3.787272 -12.592454 36.704113 9.631136 -25.729142 6.337461 -3.101800 10.858100 -31.802800 3.752213 1.158425 11.588086 0.267784 1.924334 -4.200352 -0.995621 1.233255 -3.375235 -3.798681 -3.713489 -16.161478 4.482090 -4.632690 4.447924 0.921700 -2.377500 6.717500 4.903765 -2.695166 -0.141575 -81.847895 31.356953 46.128539 115.233791 -57.769306 -84.553029 -0.138056 -0.193995 -12.751961 19.987787 -10.971778 -3.933300 -7.125000 0.000000 0.000000 -4.871700 18.526000 3.082500 -7.140301 3.109499 0.370169 88.567180 -16.573281 44.959642 -136.636399 47.614991 -101.728313 1.656352 -1.088590 -4.865293 -23.057641 13.029004 -6.415100 7.125000 0.000000 0.000000 1.938000 -14.426900 1.394800 
4.067911 18.605504 -22.787045 176.913804 47.394068 -175.158671 -7.473179 -6.333422 -5.515394 3.070689 -1.828072 -34.185880 1.945378 12.879325 31.603988 2.409024 4.678158 32.393206 0.967500 -6.262400 -17.547700 9.983936 2.189868 5.062416 18.681657 -4.890538 -11.057030 -3.978651 -12.651484 36.821753 8.993003 -25.197006 9.768577 -2.911200 10.549900 -30.776400 4.106842 1.325444 11.479908 0.266121 2.162745 -4.179556 -1.027788 1.394416 -3.268312 -3.947036 -3.839086 -16.096555 4.459426 -4.762925 4.562738 0.937500 -2.448200 6.776400 4.939851 -2.621299 -0.138436 -82.134137 32.074066 45.941178 116.236652 -57.569206 -85.276558 -0.133014 -0.182636 -12.757771 19.986115 -10.773965 -3.864500 -7.125000 0.000000 0.000000 -4.874700 18.723600 3.063000 -7.153849 3.115272 0.373364 87.900594 -16.826144 45.439054 -137.795855 46.858850 -102.547250 1.628738 -1.117179 -4.479439 -22.821051 13.132382 -6.391900 7.125000 0.000000 0.000000 2.121700 -14.327700 1.531700 
4.390368 18.679992 -23.196568 177.442011 47.694471 -175.195597 -7.882598 -6.517395 -5.664821 3.589071 -1.895727 -33.392562 0.895136 11.550176 27.322138 2.704938 6.104505 36.190924 1.114700 -6.707400 -18.851400 9.977754 2.063800 5.333093 18.325294 -5.378360 -10.097537 -4.223676 -12.775493 37.246233 8.278596 -24.543519 12.859941 -2.607600 10.030900 -29.076900 4.402431 1.488691 11.311855 0.272065 2.385775 -4.160766 -0.989619 1.546974 -3.139089 -4.092205 -3.942076 -16.023496 4.423677 -4.864094 4.701437 0.939100 -2.506200 6.841300 4.982404 -2.547104 -0.136583 -82.530583 32.778603 45.643517 117.082903 -57.399364 -85.875176 -0.135065 -0.170746 -12.869733 20.021497 -10.547299 -3.794900 -7.125000 0.000000 0.000000 -4.846200 18.946400 3.021000 -7.157426 3.114353 0.371382 87.204636 -17.096550 45.829790 -138.732474 46.232899 -103.206856 1.604407 -1.128528 -4.329819 -22.600960 13.177849 -6.343200 7.125000 0.000000 0.000000 2.289500 -14.300500 1.654400 
4.713802 18.742012 -23.608043 177.903816 48.035127 -175.282357 -8.298633 -6.675181 -5.803308 4.166686 -2.132478 -32.593203 0.082301 10.315771 23.502983 3.027217 7.594885 39.693370 1.223400 -7.015500 -19.761300 9.925029 1.949034 5.555238 17.923901 -5.798353 -9.263597 -4.533815 -12.967988 37.998766 7.606128 -23.896882 15.376443 -2.267000 9.401300 -27.059000 4.619957 1.656991 11.096183 0.280177 2.602082 -4.142505 -0.896347 1.693427 -2.989504 -4.229329 -4.029989 -15.937276 4.383386 -4.947470 4.860903 0.931500 -2.555700 6.910700 5.026735 -2.473373 -0.135830 -82.992213 33.463260 45.265104 117.788802 -57.260774 -86.363672 -0.142012 -0.159594 -13.079145 20.065578 -10.299719 -3.720400 -7.125000 0.000000 0.000000 -4.807800 19.189800 2.970700 -7.153840 3.106790 0.364824 86.504394 -17.369744 46.110600 -139.447732 45.750572 -103.711009 1.583295 -1.123658 -4.426022 -22.386408 13.163436 -6.266400 7.125000 0.000000 0.000000 2.449600 -14.347400 1.767800 
5.037886 18.789394 -24.020711 178.305080 48.418818 -175.421651 -8.698105 -6.790481 -5.930492 4.763614 -2.525242 -31.827836 -0.502299 9.240167 20.240010 3.325276 9.112421 42.678708 1.288400 -7.192400 -20.286700 9.821358 1.841515 5.724684 17.500489 -6.118798 -8.536222 -4.922677 -13.233046 39.098221 7.074490 -23.364185 17.148258 -1.946000 8.752700 -25.024600 4.766774 1.826485 10.844998 0.289504 2.808984 -4.125129 -0.761703 1.830718 -2.826110 -4.346079 -4.096961 -15.838234 4.340947 -5.007655 5.038840 0.915200 -2.593100 6.983600 5.070907 -2.402365 -0.136488 -83.489684 34.125429 44.812503 118.364755 -57.154438 -86.753349 -0.151740 -0.148973 -13.342625 20.105520 -10.055042 -3.646300 -7.125000 0.000000 0.000000 -4.770500 19.430200 2.921900 -7.143414 3.092355 0.353585 85.801343 -17.640440 46.297696 -139.962374 45.407647 -104.075840 1.565734 -1.103442 -4.752283 -22.183361 13.083113 -6.161700 7.125000 0.000000 0.000000 2.597400 -14.473500 1.867700 
5.361645 18.820403 -24.433704 178.670303 48.841766 -175.611114 -9.064543 -6.845901 -6.041771 5.353580 -3.054428 -31.106981 -0.878563 8.371175 17.574192 3.523979 10.713313 45.033362 1.302400 -7.229800 -20.397900 9.666718 1.736456 5.839630 17.086651 -6.315300 -7.888926 -5.402387 -13.572380 40.551472 6.741842 -23.021744 18.116426 -1.680300 8.165600 -23.218300 4.867794 1.995084 10.592803 0.299463 3.010681 -4.108288 -0.601116 1.958390 -2.664127 -4.444096 -4.148430 -15.722811 4.301462 -5.051827 5.229633 0.894800 -2.621200 7.058600 5.112572 -2.337601 -0.138176 -83.990738 34.758911 44.308708 118.828921 -57.077031 -87.061159 -0.162997 -0.138628 -13.623631 20.149199 -9.831124 -3.580300 -7.125000 0.000000 0.000000 -4.729900 19.648300 2.873800 -7.126689 3.072224 0.337704 85.112695 -17.888553 46.381017 -140.274693 45.210929 -104.302738 1.550715 -1.071250 -5.237791 -21.993614 12.944362 -6.034500 7.125000 0.000000 0.000000 2.732200 -14.668700 1.953500 
5.684319 18.834065 -24.846046 179.026776 49.297070 -175.828094 -9.382239 -6.836037 -6.131347 5.892598 -3.636171 -30.455465 -1.081232 7.730934 15.508302 3.586653 12.412115 46.770975 1.276600 -7.160700 -20.192500 9.466171 1.634519 5.898298 16.709306 -6.379398 -7.321707 -5.978803 -13.981365 42.349168 6.616885 -22.896751 18.331800 -1.488300 7.707100 -21.828100 4.952285 2.156840 10.348920 0.309899 3.204315 -4.092028 -0.436124 2.073985 -2.506349 -4.510031 -4.181444 -15.600009 4.264850 -5.078658 5.430928 0.869200 -2.638600 7.137000 5.150258 -2.280940 -0.141337 -84.458899 35.355700 43.777669 119.190125 -57.027773 -87.296441 -0.174284 -0.128242 -13.869407 20.203639 -9.644516 -3.529399 -7.125000 0.000000 0.000000 -4.682400 19.826600 2.826000 -7.103898 3.046365 0.317017 84.454995 -18.094908 46.366819 -140.388481 45.160975 -104.394821 1.536172 -1.032077 -5.788366 -21.811205 12.768232 -5.893000 7.125000 0.000000 0.000000 2.859900 -14.908500 2.030400 
6.005151 18.830053 -25.256654 179.424236 49.771588 -176.040017 -9.638418 -6.764207 -6.191748 6.338160 -4.145826 -29.896759 -1.146136 7.319863 14.014359 3.518138 14.196811 48.012199 1.198800 -6.947000 -19.558500 9.229755 1.539592 5.901899 16.406111 -6.316489 -6.838710 -6.653587 -14.449710 44.463451 6.680103 -23.012892 17.936807 -1.363300 7.390200 -20.876500 5.056697 2.301021 10.136111 0.324141 3.383709 -4.077894 -0.273704 2.173883 -2.368505 -4.547800 -4.195857 -15.474658 4.233141 -5.086644 5.642070 0.841400 -2.644500 7.222500 5.184166 -2.234917 -0.146313 -84.882204 35.915516 43.230774 119.469809 -57.000148 -87.477622 -0.184483 -0.117169 -14.041385 20.271502 -9.506155 -3.498000 -7.125000 0.000000 0.000000 -4.626900 19.952800 2.779300 -7.074107 3.016897 0.291101 83.829976 -18.253950 46.271782 -140.313398 45.250306 -104.359451 1.520196 -0.990399 -6.303971 -21.633520 12.576070 -5.746400 7.125000 0.000000 0.000000 2.983900 -15.168600 2.102100 
6.323488 18.808802 -25.664334 179.897742 50.257243 -176.227625 -9.818273 -6.646305 -6.203796 6.651706 -4.449853 -29.450166 -1.122387 7.105127 13.058120 3.410344 15.839751 48.937370 1.092000 -6.640900 -18.655700 8.965594 1.458254 5.850877 16.202424 -6.138885 -6.432644 -7.418029 -14.960119 46.856819 6.873439 -23.316792 17.115286 -1.275300 7.157100 -20.181700 5.207441 2.419512 9.980037 0.344304 3.543872 -4.064213 -0.122469 2.256398 -2.256436 -4.558404 -4.192119 -15.353005 4.209486 -5.075694 5.857622 0.814700 -2.638700 7.314700 5.214356 -2.200167 -0.152309 -85.248089 36.429015 42.686715 119.686187 -56.988022 -87.619419 -0.193425 -0.105225 -14.121884 20.363665 -9.414211 -3.487700 -7.125000 0.000000 0.000000 -4.555800 20.028000 2.728600 -7.037611 2.986352 0.261029 83.253774 -18.349100 46.101815 -140.053497 45.473080 -104.199007 1.501156 -0.951046 -6.698985 -21.452047 12.396395 -5.604900 7.125000 0.000000 0.000000 3.112300 -15.416400 2.176200 
6.639007 18.770311 -26.068219 -179.529652 50.744601 -176.381152 -9.910270 -6.505702 -6.143314 6.814823 -4.458097 -29.123859 -1.059042 7.036368 12.603273 3.410128 16.991948 49.774920 0.996300 -6.352400 -17.810300 8.680695 1.399137 5.746169 16.113375 -5.884743 -6.105114 -8.257759 -15.491094 49.484911 7.130245 -23.722329 16.039977 -1.209600 6.977300 -19.648000 5.411944 2.504484 9.908471 0.373731 3.679521 -4.051517 0.023563 2.320595 -2.187605 -4.545608 -4.168917 -15.236096 4.193657 -5.043170 6.072767 0.789300 -2.620100 7.413100 5.242244 -2.177424 -0.159096 -85.551486 36.901189 42.165960 119.871272 -56.979857 -87.745745 -0.200983 -0.092131 -14.105616 20.485158 -9.360876 -3.496700 -7.125000 0.000000 0.000000 -4.465300 20.059900 2.670800 -6.993250 2.958811 0.227889 82.732378 -18.391419 45.870631 -139.621666 45.814975 -103.922027 1.478207 -0.916961 -6.918044 -21.261466 12.251693 -5.476600 7.125000 0.000000 0.000000 3.250100 -15.627100 2.258100 
6.951381 18.714471 -26.467876 -178.865901 51.210579 -176.509459 -9.916041 -6.350434 -5.995890 6.804175 -4.129038 -28.921777 -0.974367 7.083879 12.622753 3.531508 17.515784 50.519908 0.884400 -5.995000 -16.769900 8.380692 1.363032 5.591548 16.130605 -5.602517 -5.865815 -9.152318 -16.022016 52.301962 7.382868 -24.109018 14.840435 -1.153400 6.818800 -19.179500 5.668079 2.545328 9.929105 0.412845 3.778383 -4.038305 0.161936 2.361384 -2.161616 -4.512344 -4.126922 -15.124931 4.183681 -4.989166 6.282762 0.765100 -2.589300 7.514800 5.268008 -2.166094 -0.165845 -85.782958 37.328150 41.689845 120.050063 -56.967654 -87.874374 -0.207268 -0.078354 -13.999556 20.637084 -9.329885 -3.519300 -7.125000 0.000000 0.000000 -4.354300 20.066000 2.603500 -6.942526 2.935203 0.193507 82.289523 -18.379314 45.584324 -139.027515 46.262922 -103.533127 1.450263 -0.889780 -6.935771 -21.040623 12.149419 -5.358700 7.125000 0.000000 0.000000 3.412700 -15.793800 2.359200 
